<mxfile host="Electron" modified="2024-01-27T16:25:42.186Z" agent="Mozilla/5.0 (Windows NT 10.0; Win64; x64) AppleWebKit/537.36 (KHTML, like Gecko) draw.io/23.0.2 Chrome/120.0.6099.109 Electron/28.1.0 Safari/537.36" etag="i-vZV-MG348F5tJnxE3h" version="23.0.2" type="device">
  <diagram id="C5RBs43oDa-KdzZeNtuy" name="Page-1">
    <mxGraphModel dx="3269" dy="1242" grid="1" gridSize="10" guides="1" tooltips="1" connect="1" arrows="1" fold="1" page="1" pageScale="1" pageWidth="1169" pageHeight="827" math="0" shadow="0">
      <root>
        <mxCell id="WIyWlLk6GJQsqaUBKTNV-0" />
        <mxCell id="WIyWlLk6GJQsqaUBKTNV-1" parent="WIyWlLk6GJQsqaUBKTNV-0" />
        <mxCell id="68YhJIBd8YOP8WxoWyHi-8" value="Phone&lt;br&gt;" style="swimlane;fontStyle=1;align=center;verticalAlign=top;childLayout=stackLayout;horizontal=1;startSize=26;horizontalStack=0;resizeParent=1;resizeParentMax=0;resizeLast=0;collapsible=1;marginBottom=0;whiteSpace=wrap;html=1;glass=0;rounded=0;shadow=0;" parent="WIyWlLk6GJQsqaUBKTNV-1" vertex="1">
          <mxGeometry x="488" y="120" width="256" height="90" as="geometry" />
        </mxCell>
        <mxCell id="68YhJIBd8YOP8WxoWyHi-9" value="+ number: str" style="text;strokeColor=none;fillColor=none;align=left;verticalAlign=top;spacingLeft=4;spacingRight=4;overflow=hidden;rotatable=0;points=[[0,0.5],[1,0.5]];portConstraint=eastwest;whiteSpace=wrap;html=1;rounded=0;" parent="68YhJIBd8YOP8WxoWyHi-8" vertex="1">
          <mxGeometry y="26" width="256" height="26" as="geometry" />
        </mxCell>
        <mxCell id="68YhJIBd8YOP8WxoWyHi-25" value="-phone_valid(str): @field_validator -&amp;gt;&amp;nbsp;&lt;span style=&quot;background-color: initial;&quot;&gt;str&lt;/span&gt;" style="text;strokeColor=none;fillColor=none;align=left;verticalAlign=top;spacingLeft=4;spacingRight=4;overflow=hidden;rotatable=0;points=[[0,0.5],[1,0.5]];portConstraint=eastwest;whiteSpace=wrap;html=1;rounded=0;" parent="68YhJIBd8YOP8WxoWyHi-8" vertex="1">
          <mxGeometry y="52" width="256" height="38" as="geometry" />
        </mxCell>
        <mxCell id="68YhJIBd8YOP8WxoWyHi-13" value="Address" style="swimlane;fontStyle=1;align=center;verticalAlign=top;childLayout=stackLayout;horizontal=1;startSize=26;horizontalStack=0;resizeParent=1;resizeParentMax=0;resizeLast=0;collapsible=1;marginBottom=0;whiteSpace=wrap;html=1;rounded=0;" parent="WIyWlLk6GJQsqaUBKTNV-1" vertex="1">
          <mxGeometry x="488" y="380" width="256" height="242" as="geometry" />
        </mxCell>
        <mxCell id="68YhJIBd8YOP8WxoWyHi-14" value="+Â country: Optional[str] = None" style="text;strokeColor=none;fillColor=none;align=left;verticalAlign=top;spacingLeft=4;spacingRight=4;overflow=hidden;rotatable=0;points=[[0,0.5],[1,0.5]];portConstraint=eastwest;whiteSpace=wrap;labelBackgroundColor=none;fontColor=default;fontStyle=0;fontFamily=Helvetica;labelBorderColor=none;rounded=0;" parent="68YhJIBd8YOP8WxoWyHi-13" vertex="1">
          <mxGeometry y="26" width="256" height="26" as="geometry" />
        </mxCell>
        <mxCell id="68YhJIBd8YOP8WxoWyHi-39" value="+&amp;nbsp;zip&lt;span style=&quot;font-size: 9pt;&quot;&gt;: &lt;/span&gt;&lt;span style=&quot;font-size: 9pt;&quot;&gt;Optional[str] &lt;/span&gt;&lt;span style=&quot;font-size: 9pt;&quot;&gt;= &lt;/span&gt;&lt;span style=&quot;font-size: 9pt; font-style: italic;&quot;&gt;None&lt;/span&gt;" style="text;strokeColor=none;fillColor=none;align=left;verticalAlign=top;spacingLeft=4;spacingRight=4;overflow=hidden;rotatable=0;points=[[0,0.5],[1,0.5]];portConstraint=eastwest;whiteSpace=wrap;html=1;fontColor=default;labelBackgroundColor=none;fontFamily=Helvetica;rounded=0;" parent="68YhJIBd8YOP8WxoWyHi-13" vertex="1">
          <mxGeometry y="52" width="256" height="26" as="geometry" />
        </mxCell>
        <mxCell id="68YhJIBd8YOP8WxoWyHi-41" value="+&amp;nbsp;city&lt;span style=&quot;font-size: 9pt;&quot;&gt;: &lt;/span&gt;&lt;span style=&quot;font-size: 9pt;&quot;&gt;Optional[str] &lt;/span&gt;&lt;span style=&quot;font-size: 9pt;&quot;&gt;= &lt;/span&gt;&lt;span style=&quot;font-size: 9pt; font-style: italic;&quot;&gt;None&lt;/span&gt;" style="text;strokeColor=none;fillColor=none;align=left;verticalAlign=top;spacingLeft=4;spacingRight=4;overflow=hidden;rotatable=0;points=[[0,0.5],[1,0.5]];portConstraint=eastwest;whiteSpace=wrap;html=1;fontColor=default;labelBackgroundColor=none;fontFamily=Helvetica;rounded=0;" parent="68YhJIBd8YOP8WxoWyHi-13" vertex="1">
          <mxGeometry y="78" width="256" height="26" as="geometry" />
        </mxCell>
        <mxCell id="68YhJIBd8YOP8WxoWyHi-42" value="+&amp;nbsp;street&lt;span style=&quot;font-size: 9pt;&quot;&gt;: &lt;/span&gt;&lt;span style=&quot;font-size: 9pt;&quot;&gt;Optional[str] &lt;/span&gt;&lt;span style=&quot;font-size: 9pt;&quot;&gt;= &lt;/span&gt;&lt;span style=&quot;font-size: 9pt; font-style: italic;&quot;&gt;None&lt;/span&gt;" style="text;strokeColor=none;fillColor=none;align=left;verticalAlign=top;spacingLeft=4;spacingRight=4;overflow=hidden;rotatable=0;points=[[0,0.5],[1,0.5]];portConstraint=eastwest;whiteSpace=wrap;html=1;labelBackgroundColor=none;fontColor=default;fontFamily=Helvetica;rounded=0;" parent="68YhJIBd8YOP8WxoWyHi-13" vertex="1">
          <mxGeometry y="104" width="256" height="26" as="geometry" />
        </mxCell>
        <mxCell id="68YhJIBd8YOP8WxoWyHi-40" value="+&amp;nbsp;house&lt;span style=&quot;font-size: 9pt;&quot;&gt;: &lt;/span&gt;&lt;span style=&quot;font-size: 9pt;&quot;&gt;Optional[str] &lt;/span&gt;&lt;span style=&quot;font-size: 9pt;&quot;&gt;= &lt;/span&gt;&lt;span style=&quot;font-size: 9pt; font-style: italic;&quot;&gt;None&lt;/span&gt;" style="text;strokeColor=none;fillColor=none;align=left;verticalAlign=top;spacingLeft=4;spacingRight=4;overflow=hidden;rotatable=0;points=[[0,0.5],[1,0.5]];portConstraint=eastwest;whiteSpace=wrap;html=1;fontColor=default;labelBackgroundColor=none;fontFamily=Helvetica;rounded=0;" parent="68YhJIBd8YOP8WxoWyHi-13" vertex="1">
          <mxGeometry y="130" width="256" height="26" as="geometry" />
        </mxCell>
        <mxCell id="68YhJIBd8YOP8WxoWyHi-43" value="+&amp;nbsp;apartment&lt;span style=&quot;font-size: 9pt;&quot;&gt;: &lt;/span&gt;&lt;span style=&quot;font-size: 9pt;&quot;&gt;Optional[str] &lt;/span&gt;&lt;span style=&quot;font-size: 9pt;&quot;&gt;= &lt;/span&gt;&lt;span style=&quot;font-size: 9pt; font-style: italic;&quot;&gt;None&lt;/span&gt;" style="text;strokeColor=none;fillColor=none;align=left;verticalAlign=top;spacingLeft=4;spacingRight=4;overflow=hidden;rotatable=0;points=[[0,0.5],[1,0.5]];portConstraint=eastwest;whiteSpace=wrap;html=1;fontColor=default;fontFamily=Helvetica;labelBackgroundColor=none;rounded=0;" parent="68YhJIBd8YOP8WxoWyHi-13" vertex="1">
          <mxGeometry y="156" width="256" height="26" as="geometry" />
        </mxCell>
        <mxCell id="68YhJIBd8YOP8WxoWyHi-15" value="" style="line;strokeWidth=1;fillColor=none;align=left;verticalAlign=middle;spacingTop=-1;spacingLeft=3;spacingRight=3;rotatable=0;labelPosition=right;points=[];portConstraint=eastwest;strokeColor=inherit;rounded=0;" parent="68YhJIBd8YOP8WxoWyHi-13" vertex="1">
          <mxGeometry y="182" width="256" height="8" as="geometry" />
        </mxCell>
        <mxCell id="68YhJIBd8YOP8WxoWyHi-16" value="- zip_valid(str): @field_validator -&amp;gt;&amp;nbsp;str" style="text;strokeColor=none;fillColor=none;align=left;verticalAlign=top;spacingLeft=4;spacingRight=4;overflow=hidden;rotatable=0;points=[[0,0.5],[1,0.5]];portConstraint=eastwest;whiteSpace=wrap;html=1;rounded=0;" parent="68YhJIBd8YOP8WxoWyHi-13" vertex="1">
          <mxGeometry y="190" width="256" height="26" as="geometry" />
        </mxCell>
        <mxCell id="68YhJIBd8YOP8WxoWyHi-44" value="+ as_string:&amp;nbsp;@property -&amp;gt; str" style="text;strokeColor=none;fillColor=none;align=left;verticalAlign=top;spacingLeft=4;spacingRight=4;overflow=hidden;rotatable=0;points=[[0,0.5],[1,0.5]];portConstraint=eastwest;whiteSpace=wrap;html=1;rounded=0;" parent="68YhJIBd8YOP8WxoWyHi-13" vertex="1">
          <mxGeometry y="216" width="256" height="26" as="geometry" />
        </mxCell>
        <mxCell id="68YhJIBd8YOP8WxoWyHi-17" value="Birthday&lt;br&gt;" style="swimlane;fontStyle=1;align=center;verticalAlign=top;childLayout=stackLayout;horizontal=1;startSize=26;horizontalStack=0;resizeParent=1;resizeParentMax=0;resizeLast=0;collapsible=1;marginBottom=0;whiteSpace=wrap;html=1;rounded=0;" parent="WIyWlLk6GJQsqaUBKTNV-1" vertex="1">
          <mxGeometry x="488" y="240" width="256" height="112" as="geometry" />
        </mxCell>
        <mxCell id="68YhJIBd8YOP8WxoWyHi-18" value="+ date: PastDate" style="text;strokeColor=none;fillColor=none;align=left;verticalAlign=top;spacingLeft=4;spacingRight=4;overflow=hidden;rotatable=0;points=[[0,0.5],[1,0.5]];portConstraint=eastwest;whiteSpace=wrap;html=1;rounded=0;" parent="68YhJIBd8YOP8WxoWyHi-17" vertex="1">
          <mxGeometry y="26" width="256" height="26" as="geometry" />
        </mxCell>
        <mxCell id="68YhJIBd8YOP8WxoWyHi-19" value="" style="line;strokeWidth=1;fillColor=none;align=left;verticalAlign=middle;spacingTop=-1;spacingLeft=3;spacingRight=3;rotatable=0;labelPosition=right;points=[];portConstraint=eastwest;strokeColor=inherit;rounded=0;" parent="68YhJIBd8YOP8WxoWyHi-17" vertex="1">
          <mxGeometry y="52" width="256" height="8" as="geometry" />
        </mxCell>
        <mxCell id="68YhJIBd8YOP8WxoWyHi-20" value="+ local_str: @property -&amp;gt; str" style="text;strokeColor=none;fillColor=none;align=left;verticalAlign=top;spacingLeft=4;spacingRight=4;overflow=hidden;rotatable=0;points=[[0,0.5],[1,0.5]];portConstraint=eastwest;whiteSpace=wrap;html=1;rounded=0;" parent="68YhJIBd8YOP8WxoWyHi-17" vertex="1">
          <mxGeometry y="60" width="256" height="26" as="geometry" />
        </mxCell>
        <mxCell id="68YhJIBd8YOP8WxoWyHi-24" value="+ days_to_birthday: @property -&amp;gt; int" style="text;strokeColor=none;fillColor=none;align=left;verticalAlign=top;spacingLeft=4;spacingRight=4;overflow=hidden;rotatable=0;points=[[0,0.5],[1,0.5]];portConstraint=eastwest;whiteSpace=wrap;html=1;rounded=0;" parent="68YhJIBd8YOP8WxoWyHi-17" vertex="1">
          <mxGeometry y="86" width="256" height="26" as="geometry" />
        </mxCell>
        <mxCell id="68YhJIBd8YOP8WxoWyHi-21" value="BaseModel&lt;br&gt;(pydantic)" style="html=1;whiteSpace=wrap;rounded=0;" parent="WIyWlLk6GJQsqaUBKTNV-1" vertex="1">
          <mxGeometry x="414" y="30" width="110" height="50" as="geometry" />
        </mxCell>
        <mxCell id="68YhJIBd8YOP8WxoWyHi-52" value="" style="endArrow=block;endSize=16;endFill=0;html=1;rounded=0;entryX=1;entryY=0.5;entryDx=0;entryDy=0;movable=1;resizable=1;rotatable=1;deletable=1;editable=1;locked=0;connectable=1;" parent="WIyWlLk6GJQsqaUBKTNV-1" target="68YhJIBd8YOP8WxoWyHi-21" edge="1">
          <mxGeometry width="160" relative="1" as="geometry">
            <mxPoint x="800" y="55" as="sourcePoint" />
            <mxPoint x="730" y="54.5" as="targetPoint" />
          </mxGeometry>
        </mxCell>
        <mxCell id="68YhJIBd8YOP8WxoWyHi-54" value="" style="line;strokeWidth=1;fillColor=none;align=left;verticalAlign=middle;spacingTop=-1;spacingLeft=3;spacingRight=3;rotatable=0;labelPosition=right;points=[];portConstraint=eastwest;strokeColor=inherit;rounded=0;" parent="WIyWlLk6GJQsqaUBKTNV-1" vertex="1">
          <mxGeometry x="488" y="170" width="256" height="8" as="geometry" />
        </mxCell>
        <mxCell id="68YhJIBd8YOP8WxoWyHi-57" value="" style="endArrow=none;html=1;rounded=0;movable=1;resizable=1;rotatable=1;deletable=1;editable=1;locked=0;connectable=1;" parent="WIyWlLk6GJQsqaUBKTNV-1" edge="1">
          <mxGeometry width="50" height="50" relative="1" as="geometry">
            <mxPoint x="800" y="497" as="sourcePoint" />
            <mxPoint x="800" y="55" as="targetPoint" />
          </mxGeometry>
        </mxCell>
        <mxCell id="68YhJIBd8YOP8WxoWyHi-58" value="" style="endArrow=none;html=1;rounded=0;exitX=0.997;exitY=0.403;exitDx=0;exitDy=0;exitPerimeter=0;" parent="WIyWlLk6GJQsqaUBKTNV-1" source="68YhJIBd8YOP8WxoWyHi-20" edge="1">
          <mxGeometry width="50" height="50" relative="1" as="geometry">
            <mxPoint x="720" y="352" as="sourcePoint" />
            <mxPoint x="800" y="310" as="targetPoint" />
            <Array as="points">
              <mxPoint x="770" y="310" />
            </Array>
          </mxGeometry>
        </mxCell>
        <mxCell id="68YhJIBd8YOP8WxoWyHi-59" value="" style="endArrow=none;html=1;rounded=0;exitX=0.997;exitY=0.403;exitDx=0;exitDy=0;exitPerimeter=0;" parent="WIyWlLk6GJQsqaUBKTNV-1" edge="1">
          <mxGeometry width="50" height="50" relative="1" as="geometry">
            <mxPoint x="744" y="496.8" as="sourcePoint" />
            <mxPoint x="801" y="496.8" as="targetPoint" />
            <Array as="points">
              <mxPoint x="771" y="496.8" />
            </Array>
          </mxGeometry>
        </mxCell>
        <mxCell id="68YhJIBd8YOP8WxoWyHi-60" value="" style="endArrow=none;html=1;rounded=0;exitX=0.997;exitY=0.403;exitDx=0;exitDy=0;exitPerimeter=0;" parent="WIyWlLk6GJQsqaUBKTNV-1" edge="1">
          <mxGeometry width="50" height="50" relative="1" as="geometry">
            <mxPoint x="744" y="160" as="sourcePoint" />
            <mxPoint x="801" y="160" as="targetPoint" />
            <Array as="points">
              <mxPoint x="771" y="160" />
            </Array>
          </mxGeometry>
        </mxCell>
        <mxCell id="68YhJIBd8YOP8WxoWyHi-61" value="Record" style="swimlane;fontStyle=1;align=center;verticalAlign=top;childLayout=stackLayout;horizontal=1;startSize=26;horizontalStack=0;resizeParent=1;resizeParentMax=0;resizeLast=0;collapsible=1;marginBottom=0;whiteSpace=wrap;html=1;rounded=0;" parent="WIyWlLk6GJQsqaUBKTNV-1" vertex="1">
          <mxGeometry x="130" y="120" width="240" height="424" as="geometry" />
        </mxCell>
        <mxCell id="68YhJIBd8YOP8WxoWyHi-62" value="+ name: str&lt;br&gt;" style="text;strokeColor=none;fillColor=none;align=left;verticalAlign=top;spacingLeft=4;spacingRight=4;overflow=hidden;rotatable=0;points=[[0,0.5],[1,0.5]];portConstraint=eastwest;whiteSpace=wrap;html=1;rounded=0;" parent="68YhJIBd8YOP8WxoWyHi-61" vertex="1">
          <mxGeometry y="26" width="240" height="26" as="geometry" />
        </mxCell>
        <mxCell id="68YhJIBd8YOP8WxoWyHi-69" value="+&amp;nbsp;birthday&lt;span style=&quot;font-size: 9pt;&quot;&gt;: &lt;/span&gt;&lt;span style=&quot;font-size: 9pt;&quot;&gt;Optional[Birthday] &lt;/span&gt;&lt;span style=&quot;font-size: 9pt;&quot;&gt;= &lt;/span&gt;&lt;span style=&quot;font-size: 9pt; font-style: italic;&quot;&gt;None&lt;/span&gt;" style="text;strokeColor=none;fillColor=none;align=left;verticalAlign=top;spacingLeft=4;spacingRight=4;overflow=hidden;rotatable=0;points=[[0,0.5],[1,0.5]];portConstraint=eastwest;whiteSpace=wrap;html=1;fontColor=default;labelBackgroundColor=none;fontFamily=Helvetica;rounded=0;" parent="68YhJIBd8YOP8WxoWyHi-61" vertex="1">
          <mxGeometry y="52" width="240" height="26" as="geometry" />
        </mxCell>
        <mxCell id="68YhJIBd8YOP8WxoWyHi-70" value="+&amp;nbsp;email&lt;span style=&quot;font-size: 9pt;&quot;&gt;: &lt;/span&gt;&lt;span style=&quot;font-size: 9pt;&quot;&gt;Optional[EmailStr] &lt;/span&gt;&lt;span style=&quot;font-size: 9pt;&quot;&gt;= &lt;/span&gt;&lt;span style=&quot;font-size: 9pt; font-style: italic;&quot;&gt;None&lt;/span&gt;" style="text;strokeColor=none;fillColor=none;align=left;verticalAlign=top;spacingLeft=4;spacingRight=4;overflow=hidden;rotatable=0;points=[[0,0.5],[1,0.5]];portConstraint=eastwest;whiteSpace=wrap;html=1;fontColor=default;labelBackgroundColor=none;fontFamily=Helvetica;rounded=0;" parent="68YhJIBd8YOP8WxoWyHi-61" vertex="1">
          <mxGeometry y="78" width="240" height="26" as="geometry" />
        </mxCell>
        <mxCell id="68YhJIBd8YOP8WxoWyHi-71" value="+&amp;nbsp;address&lt;span style=&quot;font-size: 9pt;&quot;&gt;: &lt;/span&gt;&lt;span style=&quot;font-size: 9pt;&quot;&gt;Optional[Address] &lt;/span&gt;&lt;span style=&quot;font-size: 9pt;&quot;&gt;= &lt;/span&gt;&lt;span style=&quot;font-size: 9pt; font-style: italic;&quot;&gt;None&lt;/span&gt;" style="text;strokeColor=none;fillColor=none;align=left;verticalAlign=top;spacingLeft=4;spacingRight=4;overflow=hidden;rotatable=0;points=[[0,0.5],[1,0.5]];portConstraint=eastwest;whiteSpace=wrap;html=1;fontColor=default;labelBackgroundColor=none;fontFamily=Helvetica;rounded=0;" parent="68YhJIBd8YOP8WxoWyHi-61" vertex="1">
          <mxGeometry y="104" width="240" height="26" as="geometry" />
        </mxCell>
        <mxCell id="68YhJIBd8YOP8WxoWyHi-72" value="+&amp;nbsp;phones&lt;span style=&quot;font-size: 9pt;&quot;&gt;: &lt;/span&gt;&lt;span style=&quot;font-size: 9pt;&quot;&gt;List[Phone] &lt;/span&gt;&lt;span style=&quot;font-size: 9pt;&quot;&gt;= &lt;/span&gt;&lt;span style=&quot;font-size: 9pt;&quot;&gt;[]&lt;/span&gt;" style="text;strokeColor=none;fillColor=none;align=left;verticalAlign=top;spacingLeft=4;spacingRight=4;overflow=hidden;rotatable=0;points=[[0,0.5],[1,0.5]];portConstraint=eastwest;whiteSpace=wrap;html=1;fontColor=default;labelBackgroundColor=none;fontFamily=Helvetica;rounded=0;" parent="68YhJIBd8YOP8WxoWyHi-61" vertex="1">
          <mxGeometry y="130" width="240" height="26" as="geometry" />
        </mxCell>
        <mxCell id="68YhJIBd8YOP8WxoWyHi-63" value="" style="line;strokeWidth=1;fillColor=none;align=left;verticalAlign=middle;spacingTop=-1;spacingLeft=3;spacingRight=3;rotatable=0;labelPosition=right;points=[];portConstraint=eastwest;strokeColor=inherit;rounded=0;" parent="68YhJIBd8YOP8WxoWyHi-61" vertex="1">
          <mxGeometry y="156" width="240" height="8" as="geometry" />
        </mxCell>
        <mxCell id="68YhJIBd8YOP8WxoWyHi-64" value="+ search_str: @property -&amp;gt; str" style="text;strokeColor=none;fillColor=none;align=left;verticalAlign=top;spacingLeft=4;spacingRight=4;overflow=hidden;rotatable=0;points=[[0,0.5],[1,0.5]];portConstraint=eastwest;whiteSpace=wrap;html=1;rounded=0;" parent="68YhJIBd8YOP8WxoWyHi-61" vertex="1">
          <mxGeometry y="164" width="240" height="26" as="geometry" />
        </mxCell>
        <mxCell id="68YhJIBd8YOP8WxoWyHi-73" value="+&amp;nbsp;add_phone&lt;span style=&quot;background-color: initial;&quot;&gt;(Phone): bool&lt;/span&gt;" style="text;strokeColor=none;fillColor=none;align=left;verticalAlign=top;spacingLeft=4;spacingRight=4;overflow=hidden;rotatable=0;points=[[0,0.5],[1,0.5]];portConstraint=eastwest;whiteSpace=wrap;html=1;rounded=0;" parent="68YhJIBd8YOP8WxoWyHi-61" vertex="1">
          <mxGeometry y="190" width="240" height="26" as="geometry" />
        </mxCell>
        <mxCell id="68YhJIBd8YOP8WxoWyHi-74" value="+ edit_phone(Phone, Phone): bool" style="text;strokeColor=none;fillColor=none;align=left;verticalAlign=top;spacingLeft=4;spacingRight=4;overflow=hidden;rotatable=0;points=[[0,0.5],[1,0.5]];portConstraint=eastwest;whiteSpace=wrap;html=1;rounded=0;" parent="68YhJIBd8YOP8WxoWyHi-61" vertex="1">
          <mxGeometry y="216" width="240" height="26" as="geometry" />
        </mxCell>
        <mxCell id="68YhJIBd8YOP8WxoWyHi-75" value="+ delete_phone(Phone): bool" style="text;strokeColor=none;fillColor=none;align=left;verticalAlign=top;spacingLeft=4;spacingRight=4;overflow=hidden;rotatable=0;points=[[0,0.5],[1,0.5]];portConstraint=eastwest;whiteSpace=wrap;html=1;rounded=0;" parent="68YhJIBd8YOP8WxoWyHi-61" vertex="1">
          <mxGeometry y="242" width="240" height="26" as="geometry" />
        </mxCell>
        <mxCell id="68YhJIBd8YOP8WxoWyHi-76" value="+ set_address(Address): bool" style="text;strokeColor=none;fillColor=none;align=left;verticalAlign=top;spacingLeft=4;spacingRight=4;overflow=hidden;rotatable=0;points=[[0,0.5],[1,0.5]];portConstraint=eastwest;whiteSpace=wrap;html=1;rounded=0;" parent="68YhJIBd8YOP8WxoWyHi-61" vertex="1">
          <mxGeometry y="268" width="240" height="26" as="geometry" />
        </mxCell>
        <mxCell id="68YhJIBd8YOP8WxoWyHi-77" value="+ delete_address(Address): bool" style="text;strokeColor=none;fillColor=none;align=left;verticalAlign=top;spacingLeft=4;spacingRight=4;overflow=hidden;rotatable=0;points=[[0,0.5],[1,0.5]];portConstraint=eastwest;whiteSpace=wrap;html=1;rounded=0;" parent="68YhJIBd8YOP8WxoWyHi-61" vertex="1">
          <mxGeometry y="294" width="240" height="26" as="geometry" />
        </mxCell>
        <mxCell id="68YhJIBd8YOP8WxoWyHi-78" value="+ set_email(EmailStr): bool" style="text;strokeColor=none;fillColor=none;align=left;verticalAlign=top;spacingLeft=4;spacingRight=4;overflow=hidden;rotatable=0;points=[[0,0.5],[1,0.5]];portConstraint=eastwest;whiteSpace=wrap;html=1;rounded=0;" parent="68YhJIBd8YOP8WxoWyHi-61" vertex="1">
          <mxGeometry y="320" width="240" height="26" as="geometry" />
        </mxCell>
        <mxCell id="68YhJIBd8YOP8WxoWyHi-82" value="+ delete_email(): bool" style="text;strokeColor=none;fillColor=none;align=left;verticalAlign=top;spacingLeft=4;spacingRight=4;overflow=hidden;rotatable=0;points=[[0,0.5],[1,0.5]];portConstraint=eastwest;whiteSpace=wrap;html=1;rounded=0;" parent="68YhJIBd8YOP8WxoWyHi-61" vertex="1">
          <mxGeometry y="346" width="240" height="26" as="geometry" />
        </mxCell>
        <mxCell id="68YhJIBd8YOP8WxoWyHi-83" value="+ set_birthday(Birthday): bool" style="text;strokeColor=none;fillColor=none;align=left;verticalAlign=top;spacingLeft=4;spacingRight=4;overflow=hidden;rotatable=0;points=[[0,0.5],[1,0.5]];portConstraint=eastwest;whiteSpace=wrap;html=1;rounded=0;" parent="68YhJIBd8YOP8WxoWyHi-61" vertex="1">
          <mxGeometry y="372" width="240" height="26" as="geometry" />
        </mxCell>
        <mxCell id="68YhJIBd8YOP8WxoWyHi-84" value="+ delete_birthday(): bool" style="text;strokeColor=none;fillColor=none;align=left;verticalAlign=top;spacingLeft=4;spacingRight=4;overflow=hidden;rotatable=0;points=[[0,0.5],[1,0.5]];portConstraint=eastwest;whiteSpace=wrap;html=1;rounded=0;" parent="68YhJIBd8YOP8WxoWyHi-61" vertex="1">
          <mxGeometry y="398" width="240" height="26" as="geometry" />
        </mxCell>
        <mxCell id="68YhJIBd8YOP8WxoWyHi-86" value="" style="endArrow=block;endSize=16;endFill=0;html=1;rounded=0;entryX=0;entryY=0.5;entryDx=0;entryDy=0;exitX=0.5;exitY=0;exitDx=0;exitDy=0;" parent="WIyWlLk6GJQsqaUBKTNV-1" source="68YhJIBd8YOP8WxoWyHi-61" target="68YhJIBd8YOP8WxoWyHi-21" edge="1">
          <mxGeometry width="160" relative="1" as="geometry">
            <mxPoint x="330" y="110" as="sourcePoint" />
            <mxPoint x="490" y="110" as="targetPoint" />
            <Array as="points">
              <mxPoint x="250" y="55" />
            </Array>
          </mxGeometry>
        </mxCell>
        <mxCell id="68YhJIBd8YOP8WxoWyHi-88" value="" style="endArrow=diamondThin;endFill=1;endSize=16;html=1;rounded=0;entryX=1.02;entryY=0.231;entryDx=0;entryDy=0;entryPerimeter=0;" parent="WIyWlLk6GJQsqaUBKTNV-1" source="68YhJIBd8YOP8WxoWyHi-8" edge="1">
          <mxGeometry width="160" relative="1" as="geometry">
            <mxPoint x="483.2" y="91.35999999999996" as="sourcePoint" />
            <mxPoint x="369.99999999999994" y="209.99599999999998" as="targetPoint" />
          </mxGeometry>
        </mxCell>
        <mxCell id="68YhJIBd8YOP8WxoWyHi-90" value="" style="endArrow=diamondThin;endFill=1;endSize=16;html=1;rounded=0;entryX=1.02;entryY=0.231;entryDx=0;entryDy=0;entryPerimeter=0;exitX=0;exitY=0.5;exitDx=0;exitDy=0;shadow=0;" parent="WIyWlLk6GJQsqaUBKTNV-1" source="68YhJIBd8YOP8WxoWyHi-20" edge="1">
          <mxGeometry width="160" relative="1" as="geometry">
            <mxPoint x="488" y="290" as="sourcePoint" />
            <mxPoint x="369.99999999999994" y="311.996" as="targetPoint" />
          </mxGeometry>
        </mxCell>
        <mxCell id="68YhJIBd8YOP8WxoWyHi-91" value="" style="endArrow=diamondThin;endFill=1;endSize=16;html=1;rounded=0;entryX=1.008;entryY=0.067;entryDx=0;entryDy=0;entryPerimeter=0;" parent="WIyWlLk6GJQsqaUBKTNV-1" target="68YhJIBd8YOP8WxoWyHi-75" edge="1">
          <mxGeometry width="160" relative="1" as="geometry">
            <mxPoint x="488" y="450" as="sourcePoint" />
            <mxPoint x="369.99999999999994" y="471.996" as="targetPoint" />
          </mxGeometry>
        </mxCell>
        <mxCell id="68YhJIBd8YOP8WxoWyHi-92" value="AddressBook" style="swimlane;fontStyle=1;align=center;verticalAlign=top;childLayout=stackLayout;horizontal=1;startSize=26;horizontalStack=0;resizeParent=1;resizeParentMax=0;resizeLast=0;collapsible=1;marginBottom=0;whiteSpace=wrap;html=1;rounded=0;" parent="WIyWlLk6GJQsqaUBKTNV-1" vertex="1">
          <mxGeometry x="-237.5" y="183" width="207.5" height="242" as="geometry" />
        </mxCell>
        <mxCell id="68YhJIBd8YOP8WxoWyHi-94" value="" style="line;strokeWidth=1;fillColor=none;align=left;verticalAlign=middle;spacingTop=-1;spacingLeft=3;spacingRight=3;rotatable=0;labelPosition=right;points=[];portConstraint=eastwest;strokeColor=inherit;rounded=0;" parent="68YhJIBd8YOP8WxoWyHi-92" vertex="1">
          <mxGeometry y="26" width="207.5" height="8" as="geometry" />
        </mxCell>
        <mxCell id="68YhJIBd8YOP8WxoWyHi-101" value="- __getitem__(str): Record | None" style="text;strokeColor=none;fillColor=none;align=left;verticalAlign=top;spacingLeft=4;spacingRight=4;overflow=hidden;rotatable=0;points=[[0,0.5],[1,0.5]];portConstraint=eastwest;whiteSpace=wrap;html=1;rounded=0;" parent="68YhJIBd8YOP8WxoWyHi-92" vertex="1">
          <mxGeometry y="34" width="207.5" height="26" as="geometry" />
        </mxCell>
        <mxCell id="68YhJIBd8YOP8WxoWyHi-111" value="+ iterator(): yield Record&amp;nbsp;" style="text;strokeColor=none;fillColor=none;align=left;verticalAlign=top;spacingLeft=4;spacingRight=4;overflow=hidden;rotatable=0;points=[[0,0.5],[1,0.5]];portConstraint=eastwest;whiteSpace=wrap;html=1;rounded=0;" parent="68YhJIBd8YOP8WxoWyHi-92" vertex="1">
          <mxGeometry y="60" width="207.5" height="26" as="geometry" />
        </mxCell>
        <mxCell id="68YhJIBd8YOP8WxoWyHi-95" value="+ add_record(Record): bool" style="text;strokeColor=none;fillColor=none;align=left;verticalAlign=top;spacingLeft=4;spacingRight=4;overflow=hidden;rotatable=0;points=[[0,0.5],[1,0.5]];portConstraint=eastwest;whiteSpace=wrap;html=1;rounded=0;" parent="68YhJIBd8YOP8WxoWyHi-92" vertex="1">
          <mxGeometry y="86" width="207.5" height="26" as="geometry" />
        </mxCell>
        <mxCell id="68YhJIBd8YOP8WxoWyHi-98" value="+ delete_record(Record): bool" style="text;strokeColor=none;fillColor=none;align=left;verticalAlign=top;spacingLeft=4;spacingRight=4;overflow=hidden;rotatable=0;points=[[0,0.5],[1,0.5]];portConstraint=eastwest;whiteSpace=wrap;html=1;rounded=0;" parent="68YhJIBd8YOP8WxoWyHi-92" vertex="1">
          <mxGeometry y="112" width="207.5" height="26" as="geometry" />
        </mxCell>
        <mxCell id="68YhJIBd8YOP8WxoWyHi-99" value="+ edit_record(Record): bool" style="text;strokeColor=none;fillColor=none;align=left;verticalAlign=top;spacingLeft=4;spacingRight=4;overflow=hidden;rotatable=0;points=[[0,0.5],[1,0.5]];portConstraint=eastwest;whiteSpace=wrap;html=1;rounded=0;" parent="68YhJIBd8YOP8WxoWyHi-92" vertex="1">
          <mxGeometry y="138" width="207.5" height="26" as="geometry" />
        </mxCell>
        <mxCell id="68YhJIBd8YOP8WxoWyHi-100" value="+ find_record(List[str]): bool" style="text;strokeColor=none;fillColor=none;align=left;verticalAlign=top;spacingLeft=4;spacingRight=4;overflow=hidden;rotatable=0;points=[[0,0.5],[1,0.5]];portConstraint=eastwest;whiteSpace=wrap;html=1;rounded=0;" parent="68YhJIBd8YOP8WxoWyHi-92" vertex="1">
          <mxGeometry y="164" width="207.5" height="26" as="geometry" />
        </mxCell>
        <mxCell id="68YhJIBd8YOP8WxoWyHi-102" value="+ upcoming_mates(int): List[Record]" style="text;strokeColor=none;fillColor=none;align=left;verticalAlign=top;spacingLeft=4;spacingRight=4;overflow=hidden;rotatable=0;points=[[0,0.5],[1,0.5]];portConstraint=eastwest;whiteSpace=wrap;html=1;rounded=0;" parent="68YhJIBd8YOP8WxoWyHi-92" vertex="1">
          <mxGeometry y="190" width="207.5" height="26" as="geometry" />
        </mxCell>
        <mxCell id="68YhJIBd8YOP8WxoWyHi-103" value="+ today_mates(): List[Record]" style="text;strokeColor=none;fillColor=none;align=left;verticalAlign=top;spacingLeft=4;spacingRight=4;overflow=hidden;rotatable=0;points=[[0,0.5],[1,0.5]];portConstraint=eastwest;whiteSpace=wrap;html=1;rounded=0;" parent="68YhJIBd8YOP8WxoWyHi-92" vertex="1">
          <mxGeometry y="216" width="207.5" height="26" as="geometry" />
        </mxCell>
        <mxCell id="68YhJIBd8YOP8WxoWyHi-96" value="UserDict[&lt;span style=&quot;font-size: 9pt;&quot;&gt;str&lt;/span&gt;&lt;span style=&quot;font-size: 9pt;&quot;&gt;, &lt;/span&gt;&lt;span style=&quot;font-size: 9pt;&quot;&gt;Record&lt;/span&gt;&lt;span style=&quot;font-size: 9pt;&quot;&gt;]&lt;/span&gt;" style="html=1;whiteSpace=wrap;fontColor=default;labelBackgroundColor=none;fontFamily=Helvetica;rounded=0;" parent="WIyWlLk6GJQsqaUBKTNV-1" vertex="1">
          <mxGeometry x="-212" y="93" width="155" height="50" as="geometry" />
        </mxCell>
        <mxCell id="68YhJIBd8YOP8WxoWyHi-97" value="" style="endArrow=block;endSize=16;endFill=0;html=1;rounded=0;exitX=0.5;exitY=0;exitDx=0;exitDy=0;horizontal=1;" parent="WIyWlLk6GJQsqaUBKTNV-1" source="68YhJIBd8YOP8WxoWyHi-92" target="68YhJIBd8YOP8WxoWyHi-96" edge="1">
          <mxGeometry width="160" relative="1" as="geometry">
            <mxPoint x="-220" y="353" as="sourcePoint" />
            <mxPoint x="-60" y="353" as="targetPoint" />
          </mxGeometry>
        </mxCell>
        <mxCell id="68YhJIBd8YOP8WxoWyHi-108" value="" style="endArrow=open;html=1;endSize=12;startArrow=diamondThin;startSize=14;startFill=0;edgeStyle=orthogonalEdgeStyle;rounded=0;" parent="WIyWlLk6GJQsqaUBKTNV-1" edge="1">
          <mxGeometry x="0.25" relative="1" as="geometry">
            <mxPoint x="-30" y="270" as="sourcePoint" />
            <mxPoint x="130" y="270" as="targetPoint" />
            <mxPoint as="offset" />
          </mxGeometry>
        </mxCell>
        <mxCell id="68YhJIBd8YOP8WxoWyHi-109" value="&lt;font style=&quot;font-size: 12px;&quot;&gt;0..*&lt;/font&gt;" style="edgeLabel;resizable=0;html=1;align=left;verticalAlign=top;rounded=0;" parent="68YhJIBd8YOP8WxoWyHi-108" connectable="0" vertex="1">
          <mxGeometry x="-1" relative="1" as="geometry">
            <mxPoint x="10" as="offset" />
          </mxGeometry>
        </mxCell>
        <mxCell id="68YhJIBd8YOP8WxoWyHi-110" value="&lt;font style=&quot;font-size: 12px;&quot;&gt;1&lt;/font&gt;" style="edgeLabel;resizable=0;html=1;align=right;verticalAlign=top;rounded=0;" parent="68YhJIBd8YOP8WxoWyHi-108" connectable="0" vertex="1">
          <mxGeometry x="1" relative="1" as="geometry">
            <mxPoint x="-10" as="offset" />
          </mxGeometry>
        </mxCell>
        <mxCell id="68YhJIBd8YOP8WxoWyHi-112" value="Note" style="swimlane;fontStyle=1;align=center;verticalAlign=top;childLayout=stackLayout;horizontal=1;startSize=26;horizontalStack=0;resizeParent=1;resizeParentMax=0;resizeLast=0;collapsible=1;marginBottom=0;whiteSpace=wrap;html=1;rounded=0;" parent="WIyWlLk6GJQsqaUBKTNV-1" vertex="1">
          <mxGeometry x="130" y="672" width="200" height="190" as="geometry" />
        </mxCell>
        <mxCell id="68YhJIBd8YOP8WxoWyHi-113" value="+ note_id: int" style="text;strokeColor=none;fillColor=none;align=left;verticalAlign=top;spacingLeft=4;spacingRight=4;overflow=hidden;rotatable=0;points=[[0,0.5],[1,0.5]];portConstraint=eastwest;whiteSpace=wrap;html=1;rounded=0;" parent="68YhJIBd8YOP8WxoWyHi-112" vertex="1">
          <mxGeometry y="26" width="200" height="26" as="geometry" />
        </mxCell>
        <mxCell id="68YhJIBd8YOP8WxoWyHi-116" value="+ content: str" style="text;strokeColor=none;fillColor=none;align=left;verticalAlign=top;spacingLeft=4;spacingRight=4;overflow=hidden;rotatable=0;points=[[0,0.5],[1,0.5]];portConstraint=eastwest;whiteSpace=wrap;html=1;rounded=0;" parent="68YhJIBd8YOP8WxoWyHi-112" vertex="1">
          <mxGeometry y="52" width="200" height="26" as="geometry" />
        </mxCell>
        <mxCell id="68YhJIBd8YOP8WxoWyHi-117" value="+ tags: Set[str] | None = None" style="text;strokeColor=none;fillColor=none;align=left;verticalAlign=top;spacingLeft=4;spacingRight=4;overflow=hidden;rotatable=0;points=[[0,0.5],[1,0.5]];portConstraint=eastwest;whiteSpace=wrap;html=1;rounded=0;" parent="68YhJIBd8YOP8WxoWyHi-112" vertex="1">
          <mxGeometry y="78" width="200" height="26" as="geometry" />
        </mxCell>
        <mxCell id="68YhJIBd8YOP8WxoWyHi-114" value="" style="line;strokeWidth=1;fillColor=none;align=left;verticalAlign=middle;spacingTop=-1;spacingLeft=3;spacingRight=3;rotatable=0;labelPosition=right;points=[];portConstraint=eastwest;strokeColor=inherit;rounded=0;" parent="68YhJIBd8YOP8WxoWyHi-112" vertex="1">
          <mxGeometry y="104" width="200" height="8" as="geometry" />
        </mxCell>
        <mxCell id="68YhJIBd8YOP8WxoWyHi-118" value="- _extract_tags(str): Set[str]" style="text;strokeColor=none;fillColor=none;align=left;verticalAlign=top;spacingLeft=4;spacingRight=4;overflow=hidden;rotatable=0;points=[[0,0.5],[1,0.5]];portConstraint=eastwest;whiteSpace=wrap;html=1;rounded=0;" parent="68YhJIBd8YOP8WxoWyHi-112" vertex="1">
          <mxGeometry y="112" width="200" height="26" as="geometry" />
        </mxCell>
        <mxCell id="68YhJIBd8YOP8WxoWyHi-115" value="- _parse_tags(str): str" style="text;strokeColor=none;fillColor=none;align=left;verticalAlign=top;spacingLeft=4;spacingRight=4;overflow=hidden;rotatable=0;points=[[0,0.5],[1,0.5]];portConstraint=eastwest;whiteSpace=wrap;html=1;rounded=0;" parent="68YhJIBd8YOP8WxoWyHi-112" vertex="1">
          <mxGeometry y="138" width="200" height="26" as="geometry" />
        </mxCell>
        <mxCell id="68YhJIBd8YOP8WxoWyHi-119" value="+ edit_note(str): bool" style="text;strokeColor=none;fillColor=none;align=left;verticalAlign=top;spacingLeft=4;spacingRight=4;overflow=hidden;rotatable=0;points=[[0,0.5],[1,0.5]];portConstraint=eastwest;whiteSpace=wrap;html=1;rounded=0;" parent="68YhJIBd8YOP8WxoWyHi-112" vertex="1">
          <mxGeometry y="164" width="200" height="26" as="geometry" />
        </mxCell>
        <mxCell id="68YhJIBd8YOP8WxoWyHi-120" value="UserDict[int&lt;span style=&quot;font-size: 9pt;&quot;&gt;, &lt;/span&gt;&lt;span style=&quot;font-size: 9pt;&quot;&gt;Record&lt;/span&gt;&lt;span style=&quot;font-size: 9pt;&quot;&gt;]&lt;/span&gt;" style="html=1;whiteSpace=wrap;fontColor=default;labelBackgroundColor=none;fontFamily=Helvetica;rounded=0;" parent="WIyWlLk6GJQsqaUBKTNV-1" vertex="1">
          <mxGeometry x="-212" y="544" width="155" height="50" as="geometry" />
        </mxCell>
        <mxCell id="68YhJIBd8YOP8WxoWyHi-121" value="NoteBook" style="swimlane;fontStyle=1;align=center;verticalAlign=top;childLayout=stackLayout;horizontal=1;startSize=26;horizontalStack=0;resizeParent=1;resizeParentMax=0;resizeLast=0;collapsible=1;marginBottom=0;whiteSpace=wrap;html=1;rounded=0;" parent="WIyWlLk6GJQsqaUBKTNV-1" vertex="1">
          <mxGeometry x="-250" y="634" width="250" height="294" as="geometry" />
        </mxCell>
        <mxCell id="68YhJIBd8YOP8WxoWyHi-122" value="+ tag_pool: Dict[str, List[int]]" style="text;strokeColor=none;fillColor=none;align=left;verticalAlign=top;spacingLeft=4;spacingRight=4;overflow=hidden;rotatable=0;points=[[0,0.5],[1,0.5]];portConstraint=eastwest;whiteSpace=wrap;html=1;rounded=0;" parent="68YhJIBd8YOP8WxoWyHi-121" vertex="1">
          <mxGeometry y="26" width="250" height="26" as="geometry" />
        </mxCell>
        <mxCell id="68YhJIBd8YOP8WxoWyHi-123" value="" style="line;strokeWidth=1;fillColor=none;align=left;verticalAlign=middle;spacingTop=-1;spacingLeft=3;spacingRight=3;rotatable=0;labelPosition=right;points=[];portConstraint=eastwest;strokeColor=inherit;rounded=0;" parent="68YhJIBd8YOP8WxoWyHi-121" vertex="1">
          <mxGeometry y="52" width="250" height="8" as="geometry" />
        </mxCell>
        <mxCell id="68YhJIBd8YOP8WxoWyHi-124" value="- __getitem__(int): Note" style="text;strokeColor=none;fillColor=none;align=left;verticalAlign=top;spacingLeft=4;spacingRight=4;overflow=hidden;rotatable=0;points=[[0,0.5],[1,0.5]];portConstraint=eastwest;whiteSpace=wrap;html=1;rounded=0;" parent="68YhJIBd8YOP8WxoWyHi-121" vertex="1">
          <mxGeometry y="60" width="250" height="26" as="geometry" />
        </mxCell>
        <mxCell id="68YhJIBd8YOP8WxoWyHi-129" value="- _update_tag_pool(Note): bool" style="text;strokeColor=none;fillColor=none;align=left;verticalAlign=top;spacingLeft=4;spacingRight=4;overflow=hidden;rotatable=0;points=[[0,0.5],[1,0.5]];portConstraint=eastwest;whiteSpace=wrap;html=1;rounded=0;" parent="68YhJIBd8YOP8WxoWyHi-121" vertex="1">
          <mxGeometry y="86" width="250" height="26" as="geometry" />
        </mxCell>
        <mxCell id="68YhJIBd8YOP8WxoWyHi-130" value="- _clean_tags(Note): int" style="text;strokeColor=none;fillColor=none;align=left;verticalAlign=top;spacingLeft=4;spacingRight=4;overflow=hidden;rotatable=0;points=[[0,0.5],[1,0.5]];portConstraint=eastwest;whiteSpace=wrap;html=1;rounded=0;" parent="68YhJIBd8YOP8WxoWyHi-121" vertex="1">
          <mxGeometry y="112" width="250" height="26" as="geometry" />
        </mxCell>
        <mxCell id="68YhJIBd8YOP8WxoWyHi-126" value="+ iterator(): yield Note" style="text;strokeColor=none;fillColor=none;align=left;verticalAlign=top;spacingLeft=4;spacingRight=4;overflow=hidden;rotatable=0;points=[[0,0.5],[1,0.5]];portConstraint=eastwest;whiteSpace=wrap;html=1;rounded=0;" parent="68YhJIBd8YOP8WxoWyHi-121" vertex="1">
          <mxGeometry y="138" width="250" height="26" as="geometry" />
        </mxCell>
        <mxCell id="68YhJIBd8YOP8WxoWyHi-127" value="+ add_note(Note): bool" style="text;strokeColor=none;fillColor=none;align=left;verticalAlign=top;spacingLeft=4;spacingRight=4;overflow=hidden;rotatable=0;points=[[0,0.5],[1,0.5]];portConstraint=eastwest;whiteSpace=wrap;html=1;rounded=0;" parent="68YhJIBd8YOP8WxoWyHi-121" vertex="1">
          <mxGeometry y="164" width="250" height="26" as="geometry" />
        </mxCell>
        <mxCell id="68YhJIBd8YOP8WxoWyHi-128" value="+ delete_note(Note): bool" style="text;strokeColor=none;fillColor=none;align=left;verticalAlign=top;spacingLeft=4;spacingRight=4;overflow=hidden;rotatable=0;points=[[0,0.5],[1,0.5]];portConstraint=eastwest;whiteSpace=wrap;html=1;rounded=0;" parent="68YhJIBd8YOP8WxoWyHi-121" vertex="1">
          <mxGeometry y="190" width="250" height="26" as="geometry" />
        </mxCell>
        <mxCell id="68YhJIBd8YOP8WxoWyHi-131" value="+ edit_note(Note, Note): bool" style="text;strokeColor=none;fillColor=none;align=left;verticalAlign=top;spacingLeft=4;spacingRight=4;overflow=hidden;rotatable=0;points=[[0,0.5],[1,0.5]];portConstraint=eastwest;whiteSpace=wrap;html=1;rounded=0;" parent="68YhJIBd8YOP8WxoWyHi-121" vertex="1">
          <mxGeometry y="216" width="250" height="26" as="geometry" />
        </mxCell>
        <mxCell id="68YhJIBd8YOP8WxoWyHi-132" value="+&amp;nbsp;find_notes_by_tags(List[str])&lt;span style=&quot;background-color: initial;&quot;&gt;: List[Note]&lt;/span&gt;" style="text;strokeColor=none;fillColor=none;align=left;verticalAlign=top;spacingLeft=4;spacingRight=4;overflow=hidden;rotatable=0;points=[[0,0.5],[1,0.5]];portConstraint=eastwest;whiteSpace=wrap;html=1;rounded=0;" parent="68YhJIBd8YOP8WxoWyHi-121" vertex="1">
          <mxGeometry y="242" width="250" height="26" as="geometry" />
        </mxCell>
        <mxCell id="68YhJIBd8YOP8WxoWyHi-133" value="+&amp;nbsp;find_notes_by_keyword(List[str]&lt;span style=&quot;background-color: initial;&quot;&gt;):&amp;nbsp;&lt;/span&gt;List[Note]" style="text;strokeColor=none;fillColor=none;align=left;verticalAlign=top;spacingLeft=4;spacingRight=4;overflow=hidden;rotatable=0;points=[[0,0.5],[1,0.5]];portConstraint=eastwest;whiteSpace=wrap;html=1;rounded=0;" parent="68YhJIBd8YOP8WxoWyHi-121" vertex="1">
          <mxGeometry y="268" width="250" height="26" as="geometry" />
        </mxCell>
        <mxCell id="68YhJIBd8YOP8WxoWyHi-125" value="" style="endArrow=block;endSize=16;endFill=0;html=1;rounded=0;exitX=0.5;exitY=0;exitDx=0;exitDy=0;horizontal=1;" parent="WIyWlLk6GJQsqaUBKTNV-1" edge="1">
          <mxGeometry width="160" relative="1" as="geometry">
            <mxPoint x="-134" y="634" as="sourcePoint" />
            <mxPoint x="-134" y="594" as="targetPoint" />
          </mxGeometry>
        </mxCell>
        <mxCell id="68YhJIBd8YOP8WxoWyHi-135" value="" style="endArrow=open;html=1;endSize=12;startArrow=diamondThin;startSize=14;startFill=0;edgeStyle=orthogonalEdgeStyle;rounded=0;" parent="WIyWlLk6GJQsqaUBKTNV-1" edge="1">
          <mxGeometry x="0.25" relative="1" as="geometry">
            <mxPoint y="766" as="sourcePoint" />
            <mxPoint x="130" y="766" as="targetPoint" />
            <mxPoint as="offset" />
          </mxGeometry>
        </mxCell>
        <mxCell id="68YhJIBd8YOP8WxoWyHi-136" value="&lt;font style=&quot;font-size: 12px;&quot;&gt;0..*&lt;/font&gt;" style="edgeLabel;resizable=0;html=1;align=left;verticalAlign=top;rounded=0;" parent="68YhJIBd8YOP8WxoWyHi-135" connectable="0" vertex="1">
          <mxGeometry x="-1" relative="1" as="geometry">
            <mxPoint x="10" y="1" as="offset" />
          </mxGeometry>
        </mxCell>
        <mxCell id="68YhJIBd8YOP8WxoWyHi-137" value="&lt;font style=&quot;font-size: 12px;&quot;&gt;1&lt;/font&gt;" style="edgeLabel;resizable=0;html=1;align=right;verticalAlign=top;rounded=0;" parent="68YhJIBd8YOP8WxoWyHi-135" connectable="0" vertex="1">
          <mxGeometry x="1" relative="1" as="geometry">
            <mxPoint x="-10" as="offset" />
          </mxGeometry>
        </mxCell>
        <mxCell id="13ztm-aykai5BNqFUC3e-0" value="User" style="shape=umlActor;verticalLabelPosition=bottom;verticalAlign=top;html=1;fontColor=default;fontSize=17;" vertex="1" parent="WIyWlLk6GJQsqaUBKTNV-1">
          <mxGeometry x="-1090" y="391" width="114" height="190" as="geometry" />
        </mxCell>
        <mxCell id="13ztm-aykai5BNqFUC3e-3" value="&lt;font style=&quot;font-size: 21px;&quot;&gt;Textual TUI&lt;/font&gt;" style="verticalAlign=top;align=center;spacingTop=8;spacingLeft=2;spacingRight=12;shape=cube;size=10;direction=south;fontStyle=5;html=1;whiteSpace=wrap;fontSize=21;" vertex="1" parent="WIyWlLk6GJQsqaUBKTNV-1">
          <mxGeometry x="-855" y="151" width="470" height="700" as="geometry" />
        </mxCell>
        <mxCell id="13ztm-aykai5BNqFUC3e-4" value="Dashboard&lt;br style=&quot;font-size: 16px;&quot;&gt;" style="shape=module;align=left;spacingLeft=20;align=center;verticalAlign=top;whiteSpace=wrap;html=1;fontSize=16;fontStyle=1" vertex="1" parent="WIyWlLk6GJQsqaUBKTNV-1">
          <mxGeometry x="-815" y="390" width="355" height="140" as="geometry" />
        </mxCell>
        <mxCell id="13ztm-aykai5BNqFUC3e-5" value="Contacts" style="shape=module;align=left;spacingLeft=20;align=center;verticalAlign=top;whiteSpace=wrap;html=1;fontSize=16;fontStyle=1" vertex="1" parent="WIyWlLk6GJQsqaUBKTNV-1">
          <mxGeometry x="-815" y="241" width="355" height="109" as="geometry" />
        </mxCell>
        <mxCell id="13ztm-aykai5BNqFUC3e-6" value="Notes" style="shape=module;align=left;spacingLeft=20;align=center;verticalAlign=top;whiteSpace=wrap;html=1;fontSize=16;fontStyle=1" vertex="1" parent="WIyWlLk6GJQsqaUBKTNV-1">
          <mxGeometry x="-815" y="636" width="355" height="127" as="geometry" />
        </mxCell>
        <mxCell id="13ztm-aykai5BNqFUC3e-7" value="" style="shape=doubleArrow;whiteSpace=wrap;html=1;" vertex="1" parent="WIyWlLk6GJQsqaUBKTNV-1">
          <mxGeometry x="-970" y="471" width="100" height="60" as="geometry" />
        </mxCell>
        <mxCell id="13ztm-aykai5BNqFUC3e-10" value="add_contact&lt;br&gt;edit_contact&lt;br&gt;delete_contact&lt;br&gt;find_contact" style="html=1;verticalAlign=bottom;endArrow=block;curved=0;rounded=0;entryX=0.036;entryY=0.423;entryDx=0;entryDy=0;entryPerimeter=0;exitX=1;exitY=0.25;exitDx=0;exitDy=0;" edge="1" parent="WIyWlLk6GJQsqaUBKTNV-1" source="13ztm-aykai5BNqFUC3e-5">
          <mxGeometry x="0.1551" width="80" relative="1" as="geometry">
            <mxPoint x="-453" y="268" as="sourcePoint" />
            <mxPoint x="-240.0300000000002" y="267.99800000000005" as="targetPoint" />
            <mxPoint as="offset" />
          </mxGeometry>
        </mxCell>
        <mxCell id="13ztm-aykai5BNqFUC3e-11" value="" style="html=1;verticalAlign=bottom;endArrow=open;dashed=1;endSize=8;curved=0;rounded=0;entryX=1;entryY=0.5;entryDx=0;entryDy=0;" edge="1" parent="WIyWlLk6GJQsqaUBKTNV-1">
          <mxGeometry relative="1" as="geometry">
            <mxPoint x="-237.5" y="286.65999999999997" as="sourcePoint" />
            <mxPoint x="-460" y="286.5" as="targetPoint" />
          </mxGeometry>
        </mxCell>
        <mxCell id="13ztm-aykai5BNqFUC3e-12" value="today_mates&lt;br&gt;upcoming_mates&lt;br&gt;len(data)" style="html=1;verticalAlign=bottom;endArrow=block;curved=0;rounded=0;entryX=0;entryY=0.5;entryDx=0;entryDy=0;exitX=0.998;exitY=0.219;exitDx=0;exitDy=0;exitPerimeter=0;" edge="1" parent="WIyWlLk6GJQsqaUBKTNV-1" source="13ztm-aykai5BNqFUC3e-4" target="68YhJIBd8YOP8WxoWyHi-99">
          <mxGeometry x="0.125" y="-6" width="80" relative="1" as="geometry">
            <mxPoint x="-390" y="350" as="sourcePoint" />
            <mxPoint x="-310" y="350" as="targetPoint" />
            <mxPoint as="offset" />
          </mxGeometry>
        </mxCell>
        <mxCell id="13ztm-aykai5BNqFUC3e-13" value="" style="html=1;verticalAlign=bottom;endArrow=open;dashed=1;endSize=8;curved=0;rounded=0;exitX=-0.01;exitY=-0.012;exitDx=0;exitDy=0;exitPerimeter=0;entryX=1;entryY=0.5;entryDx=0;entryDy=0;" edge="1" parent="WIyWlLk6GJQsqaUBKTNV-1">
          <mxGeometry relative="1" as="geometry">
            <mxPoint x="-239.57499999999982" y="353.6880000000001" as="sourcePoint" />
            <mxPoint x="-460" y="441" as="targetPoint" />
          </mxGeometry>
        </mxCell>
        <mxCell id="13ztm-aykai5BNqFUC3e-14" value="&lt;font style=&quot;font-size: 12px;&quot;&gt;len(data)&lt;/font&gt;" style="html=1;verticalAlign=bottom;endArrow=block;curved=0;rounded=0;exitX=1;exitY=0.5;exitDx=0;exitDy=0;entryX=0.213;entryY=0.006;entryDx=0;entryDy=0;entryPerimeter=0;" edge="1" parent="WIyWlLk6GJQsqaUBKTNV-1" source="13ztm-aykai5BNqFUC3e-4" target="68YhJIBd8YOP8WxoWyHi-121">
          <mxGeometry width="80" relative="1" as="geometry">
            <mxPoint x="-270" y="460" as="sourcePoint" />
            <mxPoint x="-190" y="460" as="targetPoint" />
          </mxGeometry>
        </mxCell>
        <mxCell id="13ztm-aykai5BNqFUC3e-15" value="" style="html=1;verticalAlign=bottom;endArrow=open;dashed=1;endSize=8;curved=0;rounded=0;entryX=1;entryY=0.75;entryDx=0;entryDy=0;exitX=0;exitY=0;exitDx=0;exitDy=0;" edge="1" parent="WIyWlLk6GJQsqaUBKTNV-1" source="68YhJIBd8YOP8WxoWyHi-121" target="13ztm-aykai5BNqFUC3e-4">
          <mxGeometry relative="1" as="geometry">
            <mxPoint x="-190" y="640" as="sourcePoint" />
            <mxPoint x="-270" y="640" as="targetPoint" />
          </mxGeometry>
        </mxCell>
        <mxCell id="13ztm-aykai5BNqFUC3e-16" value="add_note&lt;br&gt;edit_note&lt;br&gt;delete_note&lt;br&gt;find_notes_by_keyword&lt;br&gt;find_notes_by_tags" style="html=1;verticalAlign=bottom;endArrow=block;curved=0;rounded=0;entryX=0.001;entryY=0.227;entryDx=0;entryDy=0;entryPerimeter=0;" edge="1" parent="WIyWlLk6GJQsqaUBKTNV-1" source="13ztm-aykai5BNqFUC3e-6" target="68YhJIBd8YOP8WxoWyHi-124">
          <mxGeometry x="0.2365" y="10" width="80" relative="1" as="geometry">
            <mxPoint x="-270" y="640" as="sourcePoint" />
            <mxPoint x="-190" y="640" as="targetPoint" />
            <mxPoint as="offset" />
          </mxGeometry>
        </mxCell>
        <mxCell id="13ztm-aykai5BNqFUC3e-17" value="" style="html=1;verticalAlign=bottom;endArrow=open;dashed=1;endSize=8;curved=0;rounded=0;entryX=1;entryY=0.75;entryDx=0;entryDy=0;exitX=0;exitY=0.5;exitDx=0;exitDy=0;" edge="1" parent="WIyWlLk6GJQsqaUBKTNV-1" source="68YhJIBd8YOP8WxoWyHi-129" target="13ztm-aykai5BNqFUC3e-6">
          <mxGeometry relative="1" as="geometry">
            <mxPoint x="-190" y="730" as="sourcePoint" />
            <mxPoint x="-270" y="730" as="targetPoint" />
          </mxGeometry>
        </mxCell>
      </root>
    </mxGraphModel>
  </diagram>
</mxfile>
